<?xml version="1.0" encoding="UTF-8"?>
<svg id="_레이어_1" xmlns="http://www.w3.org/2000/svg" xmlns:xlink="http://www.w3.org/1999/xlink" version="1.1" viewBox="0 0 68.37 63.72">
  <!-- Generator: Adobe Illustrator 30.6.0, SVG Export Plug-In . SVG Version: 2.1.4 Build 109)  -->
  <defs>
    <style>
      .st0 {
        fill: none;
      }

      .st1 {
        fill: #121212;
      }

      .st2 {
        clip-path: url(#clippath);
      }
    </style>
    <clipPath id="clippath">
      <rect class="st0" y="0" width="68.37" height="63.71"/>
    </clipPath>
  </defs>
  <g class="st2">
    <g>
      <path class="st1" d="M57.91,38.53h-26.66l-7.41-6.61-7.78,10.2L1.34,61.37c-.99,1.29-.45,2.35,1.2,2.35h55.37c5.52,0,10-5.26,10-11.75v-1.68c0-6.49-4.48-11.75-10-11.75h0Z"/>
      <path class="st1" d="M66.22,0H10.85C5.32,0,.84,5.27.84,11.76v1.68c0,6.49,4.48,11.75,10,11.75h26.66l7.41,6.61,7.94-10.41,14.55-19.04c.99-1.29.45-2.35-1.2-2.35h.02Z"/>
    </g>
  </g>
</svg>